<svg xmlns="http://www.w3.org/2000/svg" viewBox="0 0 512 512">
  <defs>
    <linearGradient id="bg" x1="0" y1="0" x2="1" y2="1">
      <stop offset="0%" stop-color="#667eea"/>
      <stop offset="100%" stop-color="#764ba2"/>
    </linearGradient>
    <linearGradient id="sun" x1="0" y1="0" x2="1" y2="1">
      <stop offset="0%" stop-color="#ffd93d"/>
      <stop offset="100%" stop-color="#ffb347"/>
    </linearGradient>
  </defs>
  <rect width="512" height="512" rx="88" fill="url(#bg)"/>
  <circle cx="340" cy="175" r="58" fill="url(#sun)"/>
  <g stroke="#ffd93d" stroke-width="14" stroke-linecap="round" opacity="0.65">
    <line x1="340" y1="82"  x2="340" y2="100"/>
    <line x1="340" y1="250" x2="340" y2="268"/>
    <line x1="247" y1="175" x2="265" y2="175"/>
    <line x1="415" y1="175" x2="433" y2="175"/>
    <line x1="274" y1="109" x2="287" y2="122"/>
    <line x1="393" y1="228" x2="406" y2="241"/>
    <line x1="274" y1="241" x2="287" y2="228"/>
    <line x1="393" y1="122" x2="406" y2="109"/>
  </g>
  <ellipse cx="220" cy="345" rx="120" ry="48" fill="white" opacity="0.95"/>
  <circle cx="115" cy="345" r="50"  fill="white" opacity="0.95"/>
  <circle cx="320" cy="340" r="42"  fill="white" opacity="0.95"/>
  <circle cx="185" cy="315" r="48"  fill="white"/>
  <circle cx="255" cy="310" r="40"  fill="white"/>
</svg>
